<mxfile host="app.diagrams.net" modified="2023-09-03T11:47:00.801Z" agent="Mozilla/5.0 (Windows NT 10.0; Win64; x64) AppleWebKit/537.36 (KHTML, like Gecko) Chrome/116.0.0.0 Safari/537.36" etag="6YRVM8EHF-5EkIB9bH1S" version="21.3.8" type="device">
  <diagram name="페이지-1" id="UhswoTwN5EX5m7q8Bifa">
    <mxGraphModel dx="1434" dy="758" grid="1" gridSize="10" guides="1" tooltips="1" connect="1" arrows="1" fold="1" page="1" pageScale="1" pageWidth="827" pageHeight="1169" math="0" shadow="0">
      <root>
        <mxCell id="0" />
        <mxCell id="1" parent="0" />
        <mxCell id="BmULdW4PmcLErp_iG1h3-65" style="edgeStyle=orthogonalEdgeStyle;rounded=0;orthogonalLoop=1;jettySize=auto;html=1;" parent="1" source="BmULdW4PmcLErp_iG1h3-9" target="BmULdW4PmcLErp_iG1h3-55" edge="1">
          <mxGeometry relative="1" as="geometry">
            <Array as="points">
              <mxPoint x="120" y="210" />
              <mxPoint x="120" y="295" />
            </Array>
          </mxGeometry>
        </mxCell>
        <mxCell id="BmULdW4PmcLErp_iG1h3-9" value="선생님" style="shape=umlActor;verticalLabelPosition=bottom;verticalAlign=top;html=1;outlineConnect=0;" parent="1" vertex="1">
          <mxGeometry x="30" y="177.5" width="30" height="60" as="geometry" />
        </mxCell>
        <mxCell id="BmULdW4PmcLErp_iG1h3-18" value="정오답 기록" style="ellipse;whiteSpace=wrap;html=1;" parent="1" vertex="1">
          <mxGeometry x="180" y="95" width="110" height="50" as="geometry" />
        </mxCell>
        <mxCell id="BmULdW4PmcLErp_iG1h3-55" value="학습자 통계" style="ellipse;whiteSpace=wrap;html=1;" parent="1" vertex="1">
          <mxGeometry x="180" y="270" width="110" height="50" as="geometry" />
        </mxCell>
        <mxCell id="BmULdW4PmcLErp_iG1h3-74" value="&amp;lt;&amp;lt; include&amp;gt;&amp;gt;" style="text;html=1;strokeColor=none;fillColor=none;align=center;verticalAlign=middle;whiteSpace=wrap;rounded=0;" parent="1" vertex="1">
          <mxGeometry x="370" y="90" width="100" height="30" as="geometry" />
        </mxCell>
        <mxCell id="BmULdW4PmcLErp_iG1h3-83" value="&amp;lt;&amp;lt; include&amp;gt;&amp;gt;" style="text;html=1;strokeColor=none;fillColor=none;align=center;verticalAlign=middle;whiteSpace=wrap;rounded=0;" parent="1" vertex="1">
          <mxGeometry x="450" y="145" width="100" height="30" as="geometry" />
        </mxCell>
        <mxCell id="BmULdW4PmcLErp_iG1h3-93" value="" style="group" parent="1" vertex="1" connectable="0">
          <mxGeometry x="560" y="70" width="260" height="150" as="geometry" />
        </mxCell>
        <mxCell id="BmULdW4PmcLErp_iG1h3-77" value="" style="rounded=0;whiteSpace=wrap;html=1;" parent="BmULdW4PmcLErp_iG1h3-93" vertex="1">
          <mxGeometry width="140" height="150" as="geometry" />
        </mxCell>
        <mxCell id="BmULdW4PmcLErp_iG1h3-60" value="수준 분석" style="ellipse;whiteSpace=wrap;html=1;" parent="BmULdW4PmcLErp_iG1h3-93" vertex="1">
          <mxGeometry x="10" y="20" width="110" height="50" as="geometry" />
        </mxCell>
        <mxCell id="BmULdW4PmcLErp_iG1h3-62" style="edgeStyle=orthogonalEdgeStyle;rounded=0;orthogonalLoop=1;jettySize=auto;html=1;entryX=1;entryY=0.5;entryDx=0;entryDy=0;" parent="BmULdW4PmcLErp_iG1h3-93" target="BmULdW4PmcLErp_iG1h3-60" edge="1">
          <mxGeometry relative="1" as="geometry">
            <mxPoint x="180" y="70" as="sourcePoint" />
          </mxGeometry>
        </mxCell>
        <mxCell id="BmULdW4PmcLErp_iG1h3-61" value="문항 추천" style="ellipse;whiteSpace=wrap;html=1;" parent="BmULdW4PmcLErp_iG1h3-93" vertex="1">
          <mxGeometry x="10" y="80" width="110" height="50" as="geometry" />
        </mxCell>
        <mxCell id="BmULdW4PmcLErp_iG1h3-63" style="edgeStyle=orthogonalEdgeStyle;rounded=0;orthogonalLoop=1;jettySize=auto;html=1;entryX=1;entryY=0.5;entryDx=0;entryDy=0;" parent="BmULdW4PmcLErp_iG1h3-93" target="BmULdW4PmcLErp_iG1h3-61" edge="1">
          <mxGeometry relative="1" as="geometry">
            <mxPoint x="180" y="70" as="sourcePoint" />
          </mxGeometry>
        </mxCell>
        <mxCell id="q2FdavY7mowxGqcacqMk-14" value="정오답 확률&lt;br&gt;예측 AI" style="rounded=0;whiteSpace=wrap;html=1;" vertex="1" parent="BmULdW4PmcLErp_iG1h3-93">
          <mxGeometry x="180" y="50" width="80" height="50" as="geometry" />
        </mxCell>
        <mxCell id="BmULdW4PmcLErp_iG1h3-94" style="edgeStyle=orthogonalEdgeStyle;rounded=0;orthogonalLoop=1;jettySize=auto;html=1;entryX=1;entryY=0.5;entryDx=0;entryDy=0;dashed=1;" parent="1" source="BmULdW4PmcLErp_iG1h3-77" target="BmULdW4PmcLErp_iG1h3-18" edge="1">
          <mxGeometry relative="1" as="geometry">
            <Array as="points">
              <mxPoint x="510" y="120" />
              <mxPoint x="510" y="120" />
            </Array>
          </mxGeometry>
        </mxCell>
        <mxCell id="BmULdW4PmcLErp_iG1h3-95" style="edgeStyle=orthogonalEdgeStyle;rounded=0;orthogonalLoop=1;jettySize=auto;html=1;entryX=0.007;entryY=0.7;entryDx=0;entryDy=0;entryPerimeter=0;dashed=1;" parent="1" source="BmULdW4PmcLErp_iG1h3-85" target="BmULdW4PmcLErp_iG1h3-77" edge="1">
          <mxGeometry relative="1" as="geometry" />
        </mxCell>
        <mxCell id="BmULdW4PmcLErp_iG1h3-100" value="" style="group" parent="1" vertex="1" connectable="0">
          <mxGeometry x="180" y="150" width="260" height="115" as="geometry" />
        </mxCell>
        <mxCell id="BmULdW4PmcLErp_iG1h3-84" value="학습지 출제" style="ellipse;whiteSpace=wrap;html=1;" parent="BmULdW4PmcLErp_iG1h3-100" vertex="1">
          <mxGeometry y="32.5" width="110" height="50" as="geometry" />
        </mxCell>
        <mxCell id="BmULdW4PmcLErp_iG1h3-85" value="맞춤학습지 출제" style="ellipse;whiteSpace=wrap;html=1;" parent="BmULdW4PmcLErp_iG1h3-100" vertex="1">
          <mxGeometry x="150" width="110" height="50" as="geometry" />
        </mxCell>
        <mxCell id="BmULdW4PmcLErp_iG1h3-86" value="진단학습지 출제" style="ellipse;whiteSpace=wrap;html=1;" parent="BmULdW4PmcLErp_iG1h3-100" vertex="1">
          <mxGeometry x="150" y="65" width="110" height="50" as="geometry" />
        </mxCell>
        <mxCell id="BmULdW4PmcLErp_iG1h3-87" style="edgeStyle=orthogonalEdgeStyle;rounded=0;orthogonalLoop=1;jettySize=auto;html=1;exitX=0;exitY=0.5;exitDx=0;exitDy=0;entryX=1;entryY=0.5;entryDx=0;entryDy=0;endArrow=block;endFill=0;" parent="BmULdW4PmcLErp_iG1h3-100" source="BmULdW4PmcLErp_iG1h3-85" target="BmULdW4PmcLErp_iG1h3-84" edge="1">
          <mxGeometry relative="1" as="geometry" />
        </mxCell>
        <mxCell id="BmULdW4PmcLErp_iG1h3-99" value="" style="endArrow=none;html=1;rounded=0;edgeStyle=orthogonalEdgeStyle;entryX=0;entryY=0.5;entryDx=0;entryDy=0;" parent="BmULdW4PmcLErp_iG1h3-100" target="BmULdW4PmcLErp_iG1h3-86" edge="1">
          <mxGeometry width="50" height="50" relative="1" as="geometry">
            <mxPoint x="130" y="50" as="sourcePoint" />
            <mxPoint x="170" y="95" as="targetPoint" />
            <Array as="points">
              <mxPoint x="130" y="95" />
              <mxPoint x="150" y="95" />
            </Array>
          </mxGeometry>
        </mxCell>
        <mxCell id="q2FdavY7mowxGqcacqMk-4" style="edgeStyle=orthogonalEdgeStyle;rounded=0;orthogonalLoop=1;jettySize=auto;html=1;entryX=0;entryY=0.5;entryDx=0;entryDy=0;" edge="1" parent="1" target="BmULdW4PmcLErp_iG1h3-18">
          <mxGeometry relative="1" as="geometry">
            <Array as="points">
              <mxPoint x="120" y="120" />
            </Array>
            <mxPoint x="120" y="210" as="sourcePoint" />
            <mxPoint x="180" y="70" as="targetPoint" />
          </mxGeometry>
        </mxCell>
        <mxCell id="q2FdavY7mowxGqcacqMk-8" style="edgeStyle=orthogonalEdgeStyle;rounded=0;orthogonalLoop=1;jettySize=auto;html=1;exitX=0.5;exitY=0.5;exitDx=0;exitDy=0;exitPerimeter=0;" edge="1" parent="1" source="BmULdW4PmcLErp_iG1h3-9" target="BmULdW4PmcLErp_iG1h3-84">
          <mxGeometry relative="1" as="geometry">
            <Array as="points">
              <mxPoint x="45" y="210" />
            </Array>
            <mxPoint x="90" y="207" as="sourcePoint" />
            <mxPoint x="180" y="207" as="targetPoint" />
          </mxGeometry>
        </mxCell>
      </root>
    </mxGraphModel>
  </diagram>
</mxfile>
